<?xml version="1.0" standalone="no"?>
<!DOCTYPE svg PUBLIC "-//W3C//DTD SVG 1.1//EN" "http://www.w3.org/Graphics/SVG/1.1/DTD/svg11.dtd" >
<svg xmlns="http://www.w3.org/2000/svg" xmlns:xlink="http://www.w3.org/1999/xlink" version="1.1">
<metadata></metadata>
<defs>
<font id="sofia_prosemibold" horiz-adv-x="1161" >
<font-face units-per-em="2048" ascent="1536" descent="-512" />
<missing-glyph horiz-adv-x="507" />
<glyph unicode="&#xfb01;" horiz-adv-x="1347" d="M47 756v200h182v76q0 213 104 329t304 116h104v-240h-104q-156 0 -156 -205v-76h727v-956h-247v756h-480v-756h-252v756h-182zM924 1327q0 63 47.5 106.5t113.5 43.5t112 -43.5t46 -106.5q0 -65 -45.5 -108t-112.5 -43t-114 43t-47 108z" />
<glyph unicode="&#xfb02;" horiz-adv-x="1361" d="M47 756v200h182v76q0 213 104 329t304 116h584v-1477h-250v1237h-334q-156 0 -156 -205v-76h203v-200h-203v-756h-252v756h-182z" />
<glyph unicode="&#xfb03;" horiz-adv-x="2131" d="M47 756v200h182v76q0 213 104 329t304 116h104v-240h-104q-156 0 -156 -205v-76h533v76q0 213 103.5 329t303.5 116h105v-240h-105q-155 0 -155 -205v-76h727v-956h-248v756h-479v-756h-252v756h-533v-756h-252v756h-182zM1708 1327q0 63 48 106.5t114 43.5t112 -43.5 t46 -106.5q0 -65 -45.5 -108t-112.5 -43t-114.5 43t-47.5 108z" />
<glyph unicode="&#xfb04;" horiz-adv-x="2146" d="M47 756v200h182v76q0 213 104 329t304 116h104v-240h-104q-156 0 -156 -205v-76h533v76q0 213 103.5 329t303.5 116h584v-1477h-250v1237h-334q-155 0 -155 -205v-76h202v-200h-202v-756h-252v756h-533v-756h-252v756h-182z" />
<glyph horiz-adv-x="0" />
<glyph horiz-adv-x="682" />
<glyph unicode=" "  horiz-adv-x="507" />
<glyph unicode="&#x09;" horiz-adv-x="507" />
<glyph unicode="&#xa0;" horiz-adv-x="507" />
<glyph unicode="!" horiz-adv-x="573" d="M125 135q0 67 46.5 111.5t113.5 44.5q68 0 116 -44.5t48 -111.5t-48 -111t-116 -44q-67 0 -113.5 44t-46.5 111zM141 1411h293l-39 -999h-215z" />
<glyph unicode="&#x22;" horiz-adv-x="722" d="M133 1411h182l-20 -602h-141zM408 1411h182l-21 -602h-141z" />
<glyph unicode="#" horiz-adv-x="1431" d="M72 338l51 184h225l101 348h-222l49 185h226l104 356h209l-102 -356h211l104 356h209l-104 -356h227l-51 -185h-230l-102 -348h227l-51 -184h-227l-107 -338h-207l103 338h-211l-105 -338h-204l102 338h-225zM555 522h211l104 348h-213z" />
<glyph unicode="$" horiz-adv-x="1165" d="M86 412h262q5 -83 70 -141t174 -58q103 0 165.5 48t67.5 122q9 136 -194 192l-174 46q-88 25 -154.5 63t-104 77.5t-60.5 87t-30.5 85.5t-7.5 80q0 167 117.5 279t298.5 130v215h141v-217q172 -21 279.5 -133.5t107.5 -286.5h-262q0 85 -56.5 135t-154.5 50 q-90 0 -150.5 -46t-60.5 -120q0 -20 5.5 -38.5t21 -43t52 -46t89.5 -34.5l174 -51q92 -26 162.5 -63t113.5 -78.5t69 -91t34.5 -97t5.5 -100.5q-5 -114 -65.5 -201t-154.5 -134.5t-210 -59.5v-232h-141v232q-192 20 -311 141.5t-119 288.5z" />
<glyph unicode="%" horiz-adv-x="1409" d="M74 1090q0 116 78 195t194 79t195.5 -79.5t79.5 -194.5q0 -116 -79.5 -194.5t-195.5 -78.5q-117 0 -194.5 78t-77.5 195zM231 1090q0 -50 32.5 -82.5t82.5 -32.5q48 0 82.5 33t34.5 82q0 47 -35 81.5t-82 34.5q-49 0 -82 -34t-33 -82zM293 0l665 1354h140l-666 -1354 h-139zM788 252q0 116 78 195t195 79q115 0 194.5 -79t79.5 -195t-79 -194t-195 -78q-117 0 -195 77.5t-78 194.5zM946 252q0 -50 33 -82.5t82 -32.5q48 0 82.5 33t34.5 82q0 47 -35 82t-82 35q-49 0 -82 -34.5t-33 -82.5z" />
<glyph unicode="&#x26;" horiz-adv-x="1396" d="M106 406q0 129 58 223t168 141q-68 33 -110 105t-42 167q0 152 112.5 262t282.5 117q120 4 220 -46.5t163 -141.5l-210 -129q-58 76 -142 76q-74 0 -117 -45.5t-43 -106.5q0 -14 3.5 -33t15 -44.5t29.5 -45.5t50 -34.5t72 -14.5h248v168h234v-168h170v-203h-170v-233 q0 -64 7 -102t28 -66t60 -39.5t103 -11.5v-221q-158 2 -246.5 38t-123.5 129q-42 -76 -144 -121.5t-202 -45.5q-204 0 -339 121t-135 305zM371 420q11 -92 72.5 -144.5t164.5 -52.5q106 0 181 74.5t75 214.5v141h-256q-65 0 -115.5 -23.5t-76.5 -59.5t-37.5 -75t-7.5 -75z " />
<glyph unicode="'" horiz-adv-x="448" d="M133 1411h182l-20 -602h-141z" />
<glyph unicode="(" horiz-adv-x="774" d="M86 469q0 279 80 498t221 339.5t318 120.5v-208q-105 0 -197.5 -100.5t-148.5 -274.5t-56 -375q0 -200 56 -371.5t148.5 -269.5t197.5 -98v-207q-133 0 -247.5 68.5t-196.5 191t-128.5 300t-46.5 386.5z" />
<glyph unicode=")" horiz-adv-x="774" d="M70 -270q105 0 197.5 98t148 269.5t55.5 371.5q0 202 -55.5 375.5t-148 274t-197.5 100.5v208q177 0 318 -120.5t220.5 -339.5t79.5 -498q0 -209 -46.5 -386.5t-128 -300t-196 -191t-247.5 -68.5v207z" />
<glyph unicode="*" horiz-adv-x="970" d="M96 1063l60 176l252 -98l-17 270h189l-19 -268l256 96l55 -176l-260 -70l172 -215l-147 -104l-148 223l-155 -227l-146 110l170 209z" />
<glyph unicode="+" horiz-adv-x="1046" d="M102 436v199h322v319h199v-319h321v-199h-321v-323h-199v323h-322z" />
<glyph unicode="," horiz-adv-x="555" d="M10 -209q70 95 113 228t39 274h258q-4 -107 -28.5 -202t-62 -164t-75.5 -116t-78 -81z" />
<glyph unicode="-" horiz-adv-x="976" d="M129 391v209h719v-209h-719z" />
<glyph unicode="." horiz-adv-x="557" d="M117 135q0 67 46 111.5t113 44.5q68 0 116 -44.5t48 -111.5t-48 -111t-116 -44q-67 0 -113 44t-46 111z" />
<glyph unicode="/" horiz-adv-x="1026" d="M61 0l684 1411h220l-684 -1411h-220z" />
<glyph unicode="0" horiz-adv-x="1234" d="M123 670q0 121 14 220.5t49.5 189.5t91 151t142.5 97t201 36q113 0 199.5 -36t141 -97t89 -151t48 -189t13.5 -221q0 -121 -13.5 -219.5t-48 -188t-89 -150.5t-141 -96.5t-199.5 -35.5q-114 0 -201 35.5t-142.5 96.5t-91 150.5t-49.5 188.5t-14 219zM375 670 q0 -445 246 -445q241 0 241 445q0 448 -241 448q-246 0 -246 -448z" />
<glyph unicode="1" horiz-adv-x="741" d="M80 920v225l477 211v-1356h-252v1010z" />
<glyph unicode="2" horiz-adv-x="1107" d="M106 969q29 182 151.5 288.5t301.5 106.5q180 0 306 -114t126 -289q0 -180 -143 -343l-332 -378h453v-240h-856v129l546 655q82 96 82 177q0 68 -53.5 113.5t-138.5 45.5q-82 0 -139.5 -54t-69.5 -140z" />
<glyph unicode="3" horiz-adv-x="1118" d="M76 264q8 5 109.5 55.5t109.5 55.5q31 -63 91 -106.5t126 -43.5q97 0 161 56t64 143q0 14 -4 32.5t-17.5 45t-35 47t-61.5 35t-91 12.5h-143v223h143q44 0 76 17.5t47.5 43.5t22 48t6.5 39q0 28 -9 57t-37.5 58t-72.5 36q-128 16 -207 -82l-196 129q58 98 167 152t238 47 q169 -7 278 -116t109 -259q0 -82 -45.5 -150.5t-120.5 -111.5q104 -40 170 -148.5t54 -216.5q-20 -181 -168 -286.5t-348 -93.5q-135 7 -249 85.5t-167 196.5z" />
<glyph unicode="4" horiz-adv-x="1226" d="M45 291l668 1048h243v-829h179v-219h-179v-291h-249v291h-662zM410 510h297v467z" />
<glyph unicode="5" horiz-adv-x="1191" d="M92 262q8 6 105.5 65.5t105.5 65.5q42 -74 111 -120t143 -46q129 0 207 68t78 164q0 112 -73 171.5t-185 59.5q-183 0 -308 -135l-143 86l113 698h762v-231h-562l-47 -274q39 35 108.5 53t139.5 18q125 0 224.5 -50t160 -152.5t60.5 -243.5q0 -215 -146.5 -347 t-388.5 -132q-141 0 -267 76.5t-198 205.5z" />
<glyph unicode="6" horiz-adv-x="1173" d="M120 604q0 78 6.5 161.5t23.5 157t43.5 143t68.5 124.5t95.5 95.5t127.5 61t162 17.5q63 -2 116 -14.5t107.5 -40t100.5 -79.5t80 -126l-232 -98q-60 122 -180 122q-92 0 -154.5 -60.5t-86.5 -152t-19 -202.5q19 56 95 103.5t175 47.5q80 0 154.5 -31t132.5 -87.5 t92.5 -144t34.5 -191.5q-5 -191 -136 -310.5t-339 -119.5q-187 5 -315.5 130t-145.5 334q-7 82 -7 160zM399 430q0 -86 59 -146.5t142 -60.5q86 -1 144.5 56.5t60.5 144.5q0 85 -56 146t-141 61t-147 -58t-62 -143z" />
<glyph unicode="7" horiz-adv-x="1107" d="M98 1104v235h981l-641 -1339h-286l530 1104h-584z" />
<glyph unicode="8" horiz-adv-x="1196" d="M104 434q0 108 52 194.5t145 141.5q-98 95 -98 229q0 152 114.5 258.5t280.5 106.5q164 0 279.5 -106.5t115.5 -258.5q0 -139 -100 -229q94 -55 145.5 -141t51.5 -195q0 -124 -66 -228.5t-179.5 -165t-246.5 -60.5q-134 0 -247.5 60.5t-180 165t-66.5 228.5zM354 442 q0 -93 72 -159t172 -66q99 0 170.5 66t71.5 159q0 87 -68.5 154.5t-159.5 67.5h-37q-91 0 -156 -67t-65 -155zM446 991q0 -62 42 -103.5t112 -41.5q69 0 108.5 42.5t39.5 102.5q0 56 -41.5 97.5t-108.5 41.5t-109.5 -41.5t-42.5 -97.5z" />
<glyph unicode="9" horiz-adv-x="1175" d="M113 934q5 190 137 311t336 117q190 -5 316.5 -128.5t146.5 -334.5q5 -90 7 -183t-11.5 -184.5t-34.5 -174.5t-63.5 -153.5t-98 -121.5t-137.5 -78t-183 -24q-63 2 -116 14.5t-107.5 39.5t-100.5 79t-79 127l231 98q60 -123 181 -123q92 0 154.5 60.5t86.5 152t19 203.5 q-23 -58 -98 -105t-175 -47q-79 0 -152.5 31.5t-131.5 88t-92.5 144t-34.5 191.5zM371 920q-4 -83 54.5 -145t141.5 -62q85 0 147 56.5t62 141.5q0 86 -59 147.5t-142 61.5q-86 0 -145 -57t-59 -143z" />
<glyph unicode=":" horiz-adv-x="581" d="M129 135q0 67 47.5 111.5t114.5 44.5t114.5 -44.5t47.5 -111.5t-47.5 -111t-114.5 -44t-114.5 44t-47.5 111zM129 821q0 67 47.5 111.5t114.5 44.5t114.5 -44.5t47.5 -111.5t-47.5 -111t-114.5 -44t-114.5 44t-47.5 111z" />
<glyph unicode=";" horiz-adv-x="595" d="M23 -209q70 96 112 227.5t41 274.5h260q-4 -107 -28 -202t-62 -164t-75.5 -116t-77.5 -81zM150 821q0 67 47 111.5t114 44.5t114.5 -44.5t47.5 -111.5t-47.5 -111t-114.5 -44t-114 44t-47 111z" />
<glyph unicode="&#x3c;" horiz-adv-x="1286" d="M94 485v213l1032 394v-215l-755 -285l755 -285v-215z" />
<glyph unicode="=" horiz-adv-x="1228" d="M143 276v193h942v-193h-942zM143 684v193h942v-193h-942z" />
<glyph unicode="&#x3e;" horiz-adv-x="1286" d="M160 92v215l755 285l-755 285v215l1032 -394v-213z" />
<glyph unicode="?" horiz-adv-x="1005" d="M80 999q0 194 118 311t304 117q187 0 307.5 -109t120.5 -290q0 -144 -79 -246.5t-204 -140.5q-64 -21 -91.5 -57t-27.5 -107l-4 -67h-243l-5 67q0 95 14.5 156t64.5 109.5t86.5 70.5t137.5 72q15 8 23 12q78 33 78 133q0 65 -51.5 106.5t-126.5 41.5t-124.5 -49.5 t-49.5 -129.5h-248zM244 137q0 65 47.5 110.5t114.5 45.5q66 0 113.5 -45t47.5 -111q0 -68 -47 -112.5t-114 -44.5t-114.5 44.5t-47.5 112.5z" />
<glyph unicode="@" horiz-adv-x="1980" d="M96 522q0 184 69 350.5t186.5 287.5t282 192t347.5 71q185 0 354.5 -66t295 -179.5t200 -275t74.5 -343.5q0 -77 -12.5 -155t-42.5 -158t-74 -141.5t-113 -100.5t-154 -39q-61 0 -112.5 16t-95 50.5t-68.5 96t-25 144.5v260q0 105 -72 176.5t-175 71.5t-175.5 -71.5 t-72.5 -176.5q0 -101 72.5 -172t175.5 -71q98 0 176 67v-186q-81 -49 -176 -49q-172 0 -294 120t-122 291q0 176 121.5 296t294.5 120q170 0 288 -112q120 -108 129 -283v-293q0 -70 38.5 -98.5t92.5 -28.5q53 0 94 29.5t64.5 74t39 104t21 112.5t5.5 106q0 147 -61 277 t-163.5 221t-240 143.5t-287.5 52.5q-197 0 -361.5 -98t-259 -266t-94.5 -367q0 -198 94.5 -363.5t259 -261.5t361.5 -96h59v-170h-59q-184 0 -348 69.5t-281.5 188.5t-186.5 284t-69 349z" />
<glyph unicode="A" horiz-adv-x="1339" d="M0 0l528 1411h283l528 -1411h-276l-129 342h-526l-129 -342h-279zM496 571h352l-178 539z" />
<glyph unicode="B" horiz-adv-x="1298" d="M176 0v1411h553q187 0 296.5 -102.5t109.5 -280.5q0 -88 -44.5 -162t-142.5 -112q122 -30 192 -128.5t70 -201.5q0 -178 -119.5 -301t-318.5 -123h-596zM438 233h320q82 0 130 58t48 137q0 76 -49.5 136.5t-134.5 60.5h-314v-392zM438 844h273q70 0 110.5 48t40.5 122 q0 76 -41.5 120t-118.5 44h-264v-334z" />
<glyph unicode="C" horiz-adv-x="1419" d="M90 702q0 197 93.5 363.5t257 264t360.5 97.5q178 0 326 -73.5t241 -204.5l-209 -150q-64 83 -156.5 132t-201.5 49q-190 0 -319.5 -140t-129.5 -338q0 -199 129 -337t320 -138q113 0 208 51t158 140l207 -152q-94 -133 -243 -209.5t-330 -76.5q-197 0 -360.5 97 t-257 263t-93.5 362z" />
<glyph unicode="D" horiz-adv-x="1462" d="M176 0v1411h551q148 0 269 -54.5t201 -150t123.5 -224.5t43.5 -280q0 -202 -74 -359.5t-220 -250t-343 -92.5h-551zM438 240h289q121 0 207.5 63.5t127 166t40.5 232.5q0 131 -40.5 235.5t-127 169t-207.5 64.5h-289v-931z" />
<glyph unicode="E" horiz-adv-x="1171" d="M176 0v1411h873v-233h-613v-367h537v-231h-537v-347h633v-233h-893z" />
<glyph unicode="F" horiz-adv-x="1093" d="M176 0v1411h862v-233h-600v-367h475v-233h-475v-578h-262z" />
<glyph unicode="G" horiz-adv-x="1548" d="M90 702q0 197 95 363.5t260.5 264t363.5 97.5q152 0 285 -57t227 -158l-193 -168q-135 138 -319 138q-192 0 -324.5 -140.5t-132.5 -339.5q0 -130 60 -240t165.5 -175.5t231.5 -65.5q94 0 179.5 35t142 103t59.5 155h-387v215h688q0 -190 -49 -334.5t-140 -234.5 t-214.5 -135t-278.5 -45q-148 0 -282 57.5t-229.5 154.5t-151.5 230t-56 280z" />
<glyph unicode="H" horiz-adv-x="1441" d="M176 0v1411h260v-592h565v592h265v-1411h-265v584h-565v-584h-260z" />
<glyph unicode="I" horiz-adv-x="612" d="M176 0v1411h260v-1411h-260z" />
<glyph unicode="J" horiz-adv-x="614" d="M-203 -446l25 237q61 -20 164 -20q97 0 143.5 61.5t46.5 161.5v1417h262v-1417q0 -99 -25 -181.5t-76.5 -148.5t-141 -103.5t-209.5 -37.5q-61 0 -189 31z" />
<glyph unicode="K" horiz-adv-x="1224" d="M176 0v1411h264v-514l379 514h307l-536 -700l663 -711h-342l-471 522v-522h-264z" />
<glyph unicode="L" horiz-adv-x="1036" d="M176 0v1411h262v-1178h545v-233h-807z" />
<glyph unicode="M" horiz-adv-x="1882" d="M94 0l174 1411h221l451 -954l449 954h225l172 -1411h-262l-109 940l-368 -780h-209l-371 780l-111 -940h-262z" />
<glyph unicode="N" horiz-adv-x="1396" d="M176 0v1411h244l538 -917v917h263v-1411h-240l-545 928v-928h-260z" />
<glyph unicode="O" horiz-adv-x="1611" d="M90 702q0 197 94.5 363.5t259 264t361.5 97.5t362 -97.5t260 -264t95 -363.5q0 -196 -95 -362t-260 -263t-362 -97t-361.5 97t-259 263t-94.5 362zM350 702q0 -194 132 -329t323 -135q189 0 322 135.5t133 328.5q0 126 -60.5 233.5t-165.5 170.5t-229 63 q-126 0 -230.5 -63t-164.5 -170.5t-60 -233.5z" />
<glyph unicode="P" horiz-adv-x="1253" d="M176 0v1411h574q91 0 166.5 -25.5t127 -69t87 -102.5t51.5 -124.5t16 -135.5t-16 -135t-51.5 -123t-87 -101t-127 -68t-166.5 -25h-312v-502h-262zM438 735h299q95 0 147 66.5t52 152.5t-50 155t-141 69h-307v-443z" />
<glyph unicode="Q" horiz-adv-x="1622" d="M90 702q0 197 95 363.5t260.5 264t363.5 97.5q201 0 367.5 -97.5t261 -264t94.5 -363.5q0 -184 -85 -342.5t-233 -257.5l140 -227l-189 -115l-153 248q-106 -28 -203 -28q-148 0 -282 57.5t-229.5 154.5t-151.5 230t-56 280zM352 702q0 -178 108.5 -306.5t276.5 -153.5 q42 -7 81 -7q27 0 52 3l-122 204l188 113l143 -233q89 64 139 162t50 218q0 197 -134 337.5t-325 140.5q-192 0 -324.5 -140t-132.5 -338z" />
<glyph unicode="R" horiz-adv-x="1292" d="M176 0v1411h565q112 0 201 -39t142 -104.5t80.5 -145.5t27.5 -168q0 -78 -21 -149t-63 -132.5t-112.5 -104t-161.5 -56.5l360 -512h-315l-332 502h-109v-502h-262zM438 735h283q97 0 148 66t51 153q0 86 -50 155t-141 69h-291v-443z" />
<glyph unicode="S" horiz-adv-x="1181" d="M94 412h262q5 -83 70 -141t174 -58q103 0 166 48t68 122v11q0 127 -195 181l-174 46q-356 102 -356 393q0 121 64.5 216t172.5 146t238 51q204 0 336.5 -116.5t132.5 -309.5h-262q0 85 -56.5 135t-154.5 50q-90 0 -150.5 -46t-60.5 -120q0 -20 5.5 -38.5t21 -43t52 -46 t89.5 -34.5l174 -51q92 -26 162.5 -63t113.5 -78.5t69 -91.5q26 -48 34 -96q6 -35 6 -74v-27q-5 -123 -76 -215.5t-180.5 -138.5t-239.5 -46q-222 0 -364 125.5t-142 309.5z" />
<glyph unicode="T" horiz-adv-x="1173" d="M57 1171v240h1059v-240h-397v-1171h-264v1171h-398z" />
<glyph unicode="U" horiz-adv-x="1394" d="M162 498v913h266v-913q0 -119 80 -195t190 -76t191.5 76t81.5 195v913h262v-913q0 -115 -43.5 -213.5t-116.5 -164.5t-170.5 -103t-204.5 -37q-145 0 -266.5 63t-195.5 182.5t-74 272.5z" />
<glyph unicode="V" horiz-adv-x="1177" d="M41 1411h272l275 -983l274 983h273l-428 -1411h-236z" />
<glyph unicode="W" horiz-adv-x="1826" d="M10 1411h283l301 -983l215 786h209l213 -786l303 983h285l-480 -1411h-211l-217 801l-213 -801h-213z" />
<glyph unicode="X" horiz-adv-x="1316" d="M12 0l490 754l-443 657h314l284 -448l285 448h313l-442 -657l492 -754h-312l-336 543l-335 -543h-310z" />
<glyph unicode="Y" horiz-adv-x="1318" d="M-16 1411h311l362 -543l367 543h313l-544 -772v-639h-269v643z" />
<glyph unicode="Z" horiz-adv-x="1202" d="M86 0v205l680 971h-653v235h991v-207l-686 -968h686v-236h-1018z" />
<glyph unicode="[" horiz-adv-x="679" d="M156 -465v1876h450v-194h-229v-1485h229v-197h-450z" />
<glyph unicode="\" horiz-adv-x="1026" d="M61 1411h220l684 -1411h-220z" />
<glyph unicode="]" horiz-adv-x="679" d="M74 -268h229v1485h-229v194h450v-1876h-450v197z" />
<glyph unicode="_" horiz-adv-x="1490" d="M129 -63h1233v-191h-1233v191z" />
<glyph unicode="`" horiz-adv-x="1103" d="M264 1448h262l215 -334h-194z" />
<glyph unicode="a" horiz-adv-x="1257" d="M82 479q0 111 40.5 206t108.5 158t155.5 98.5t182.5 35.5q78 0 163 -34t134 -105v118h250v-956h-250v123q-41 -68 -129 -104.5t-168 -36.5q-127 0 -237.5 59.5t-180 175t-69.5 262.5zM340 479q0 -114 78 -186t186 -72t185 70t77 188q0 117 -78.5 187.5t-183.5 70.5 q-108 0 -186 -72t-78 -186z" />
<glyph unicode="b" horiz-adv-x="1241" d="M141 0v1477h250v-648q37 70 118.5 109t180.5 39q94 0 179.5 -35.5t149.5 -99.5t102 -159t38 -206t-38 -205t-102 -157.5t-149.5 -99t-179.5 -35.5q-97 0 -179.5 39.5t-119.5 109.5v-129h-250zM395 481q0 -117 74 -189.5t180 -72.5q107 0 179.5 73t72.5 189 q0 115 -72.5 186.5t-179.5 71.5q-103 0 -178.5 -70.5t-75.5 -187.5z" />
<glyph unicode="c" horiz-adv-x="1064" d="M80 481q0 111 42 205t113 157t164.5 98.5t196.5 35.5q123 0 226.5 -48t170.5 -138l-198 -150q-70 94 -199 94q-109 0 -188.5 -70.5t-79.5 -183.5q0 -114 80 -188t188 -74q127 0 199 96l200 -147q-67 -90 -171 -139t-228 -49q-137 0 -254.5 61.5t-189.5 177.5t-72 262z " />
<glyph unicode="d" horiz-adv-x="1241" d="M82 477q0 111 38 206t102 159t149.5 99.5t179.5 35.5q99 0 180 -38.5t121 -109.5v648h248v-1477h-248v129q-40 -70 -122.5 -109.5t-178.5 -39.5q-94 0 -179.5 35.5t-149.5 99t-102 157.5t-38 205zM340 481q0 -116 72.5 -189t179.5 -73q106 0 181 72.5t75 189.5 q0 118 -76 188t-180 70q-107 0 -179.5 -71.5t-72.5 -186.5z" />
<glyph unicode="e" horiz-adv-x="1132" d="M82 481q0 148 67.5 262t180 174t248.5 60q135 0 245 -60t175 -174t65 -262q0 -40 -4 -86h-729q12 -95 84.5 -150t179.5 -55q75 0 140.5 32t99.5 91q70 -39 190 -102q-63 -117 -183.5 -174t-262.5 -57q-136 0 -248.5 61.5t-180 177t-67.5 262.5zM328 565h491 q-13 96 -78.5 149.5t-160.5 53.5q-101 0 -170 -53.5t-82 -149.5z" />
<glyph unicode="f" horiz-adv-x="731" d="M47 756v200h182v76q0 213 104 329t304 116h104v-240h-104q-156 0 -156 -205v-76h203v-200h-203v-756h-252v756h-182z" />
<glyph unicode="g" horiz-adv-x="1251" d="M82 475q0 148 68 264.5t176.5 177t234.5 60.5q97 0 181 -40t124 -110v129h244v-819q0 -311 -139 -462.5t-396 -151.5q-149 0 -271 75.5t-185 206.5q28 14 102 52t101 51q30 -70 103 -114t150 -44q88 0 149.5 30.5t93 85t42.5 120.5q8 43 8 92q0 26 -2 53 q-35 -70 -122 -110.5t-183 -40.5q-126 0 -234.5 59.5t-176.5 174.5t-68 261zM342 479q0 -117 75 -189.5t183 -72.5q102 0 181 73t79 189q0 118 -76 188t-184 70q-107 0 -182.5 -72t-75.5 -186z" />
<glyph unicode="h" horiz-adv-x="1202" d="M141 0v1477h250v-668q20 54 75 94t113 57t109 17q185 0 285 -116.5t100 -328.5v-532h-250v520q0 98 -60 155.5t-142 57.5q-42 0 -80.5 -12t-73 -37t-55.5 -70t-21 -104v-510h-250z" />
<glyph unicode="i" horiz-adv-x="530" d="M104 1327q0 63 48 106.5t114 43.5t112 -43.5t46 -106.5q0 -65 -45.5 -108t-112.5 -43t-114.5 43t-47.5 108zM141 0v956h248v-956h-248z" />
<glyph unicode="j" horiz-adv-x="534" d="M-121 -248h121q141 0 141 180v1024h252v-1019q0 -198 -83 -306t-273 -108h-158v229zM106 1327q0 63 47 106.5t113 43.5q67 0 113.5 -43.5t46.5 -106.5q0 -65 -46 -108t-114 -43q-67 0 -113.5 43t-46.5 108z" />
<glyph unicode="k" horiz-adv-x="1062" d="M141 0v1477h248v-807l264 286h324l-402 -419l488 -537h-313l-361 410v-410h-248z" />
<glyph unicode="l" horiz-adv-x="532" d="M141 0v1477h250v-1477h-250z" />
<glyph unicode="m" horiz-adv-x="1769" d="M141 0v956h250v-141q26 55 75.5 92.5t99.5 52.5t100 15q117 -6 190.5 -48.5t114.5 -129.5q99 180 301 180q175 0 271.5 -110.5t96.5 -319.5v-547h-247v520q0 101 -50 157t-131 56q-89 0 -141.5 -57.5t-52.5 -165.5v-510h-250v526q-1 97 -50.5 152t-125.5 55 q-86 0 -143.5 -54.5t-57.5 -168.5v-510h-250z" />
<glyph unicode="n" d="M141 0v956h250v-141q40 76 118.5 119t166.5 43q169 0 262.5 -105.5t93.5 -306.5v-565h-250v520q0 102 -49 157.5t-133 55.5q-94 0 -151.5 -53t-57.5 -170v-510h-250z" />
<glyph unicode="o" horiz-adv-x="1159" d="M82 481q0 147 68.5 261.5t181 174.5t248.5 60t248.5 -60t180.5 -174.5t68 -261.5q0 -146 -68 -261.5t-181 -176.5t-248 -61t-248 61t-181.5 176.5t-68.5 261.5zM330 481q0 -115 71.5 -185.5t178.5 -70.5t178 70.5t71 185.5q0 113 -71 181.5t-178 68.5t-178.5 -68.5 t-71.5 -181.5z" />
<glyph unicode="p" horiz-adv-x="1239" d="M141 -465v1421h250v-129q37 70 119.5 110t179.5 40q93 0 178 -36t149 -99.5t102 -158t38 -204.5q0 -111 -38 -206t-102 -158.5t-148.5 -99t-178.5 -35.5q-97 0 -179.5 38.5t-119.5 108.5v-592h-250zM395 475q0 -118 75 -188t179 -70q106 0 179 72t73 186q0 116 -73.5 189 t-178.5 73q-106 0 -180 -72.5t-74 -189.5z" />
<glyph unicode="q" horiz-adv-x="1239" d="M82 479q0 110 38 204.5t102 158t149 99.5t178 36q97 0 179.5 -40t119.5 -110v129h250v-1421h-250v592q-37 -70 -119.5 -108.5t-179.5 -38.5q-94 0 -178.5 35.5t-148.5 99t-102 158.5t-38 206zM340 475q0 -115 72 -186.5t178 -71.5q103 0 178.5 70.5t75.5 187.5t-74 189.5 t-180 72.5t-178 -73t-72 -189z" />
<glyph unicode="r" horiz-adv-x="841" d="M141 0v956h250v-225q35 123 109 184.5t162 61.5q98 0 157 -35l-43 -225q-57 26 -145 26q-240 0 -240 -405v-338h-250z" />
<glyph unicode="s" horiz-adv-x="929" d="M74 301h233q5 -53 57 -89q46 -33 106 -32h13q54 2 89.5 28.5t35.5 70.5q0 35 -24 55q-25 22 -80 33l-131 32q-72 19 -123.5 45.5t-79.5 53.5t-44 62.5t-20 64t-4 67.5q0 116 105.5 200.5t247.5 84.5q71 0 134 -16.5t116 -51t85.5 -94.5t36.5 -139h-237q-4 50 -42 74 t-87 24q-121 0 -121 -94q0 -28 28 -48.5t72 -31.5l160 -39q63 -17 110.5 -46t73.5 -58.5t41.5 -65.5t20 -62.5t4.5 -54.5q0 -94 -57 -162.5t-144 -100t-190 -31.5q-96 0 -181.5 36.5t-143 111.5t-60.5 173z" />
<glyph unicode="t" horiz-adv-x="718" d="M47 756v200h174v365h248v-365h203v-200h-203v-756h-248v756h-174z" />
<glyph unicode="u" d="M129 391v565h252v-520q0 -108 53.5 -160.5t128.5 -52.5q88 0 147.5 54t59.5 169v510h250v-956h-250v135q-38 -73 -112.5 -114t-151.5 -41q-174 0 -275.5 106.5t-101.5 304.5z" />
<glyph unicode="v" horiz-adv-x="1060" d="M18 956h267l245 -637l246 637h268l-403 -956h-221z" />
<glyph unicode="w" horiz-adv-x="1585" d="M25 956h266l194 -604l193 604h221l195 -604l194 604h266l-342 -956h-208l-213 641l-207 -641h-207z" />
<glyph unicode="x" horiz-adv-x="1064" d="M14 0l377 520l-313 436h293l164 -235l159 235h293l-313 -436l375 -520h-291l-226 319l-227 -319h-291z" />
<glyph unicode="y" horiz-adv-x="1046" d="M18 956h267l237 -596l240 596h266l-592 -1423h-264l219 541z" />
<glyph unicode="z" horiz-adv-x="1040" d="M84 0v190l494 533h-463v233h825v-192l-502 -531h502v-233h-856z" />
<glyph unicode="{" horiz-adv-x="833" d="M70 389v170q50 0 87.5 31.5t37.5 83.5v332q0 181 118.5 293t290.5 112h160v-192h-166q-79 0 -132.5 -56t-53.5 -141v-313q0 -85 -39 -148.5t-101 -87.5q60 -24 100 -87t40 -146v-301q0 -84 54.5 -145.5t131.5 -61.5h166v-197h-160q-172 0 -290.5 112.5t-118.5 293.5v335 q0 49 -38 81t-87 32z" />
<glyph unicode="|" horiz-adv-x="452" d="M156 -250v1888h141v-1888h-141z" />
<glyph unicode="}" horiz-adv-x="833" d="M70 -268h166q77 0 131.5 61.5t54.5 145.5v301q0 83 39.5 146t99.5 87q-62 24 -100.5 87t-38.5 149v313q0 85 -53.5 141t-132.5 56h-166v192h159q172 0 291 -112t119 -293v-332q0 -52 37.5 -83.5t87.5 -31.5v-170q-49 0 -87 -32t-38 -81v-335q0 -181 -119 -293.5 t-291 -112.5h-159v197z" />
<glyph unicode="&#xa1;" horiz-adv-x="542" d="M109 821q0 67 46 111.5t113 44.5q68 0 116 -44.5t48 -111.5t-48 -111t-116 -44q-67 0 -113 44t-46 111zM125 -465l39 1010h215l39 -1010h-293z" />
<glyph unicode="&#xa2;" horiz-adv-x="1095" d="M88 481q0 193 118 324t302 164v219h141v-213q109 -11 200 -58t152 -126l-198 -150q-70 94 -199 94q-109 0 -188.5 -70.5t-79.5 -183.5q0 -114 80 -188t188 -74q127 0 199 96l201 -147q-126 -164 -355 -186v-232h-141v238q-182 30 -301 164t-119 329z" />
<glyph unicode="&#xa3;" horiz-adv-x="1357" d="M88 0v229h209v349h-166v127h166v258q0 213 117 338.5t313 125.5q91 0 170 -28.5t140 -82.5t96.5 -141.5t35.5 -197.5h-256q0 100 -54 146.5t-136 41.5q-76 -2 -126 -50.5t-50 -125.5v-284h262v-127h-262v-349h389q34 0 58 15t24 49v80h248v-111q0 -111 -67.5 -186.5 t-170.5 -75.5h-940z" />
<glyph unicode="&#xa4;" horiz-adv-x="1265" d="M137 330l146 147q-64 94 -64 217q0 122 66 219l-148 148l131 131l148 -148q103 64 217 64q125 0 219 -64l145 148l131 -131l-145 -148q64 -108 64 -219q0 -129 -64 -217l145 -147l-131 -131l-145 147q-95 -65 -219 -65t-219 65l-146 -147zM444 694q0 -79 54.5 -133.5 t134.5 -54.5t135 54.5t55 133.5q0 80 -55.5 135.5t-134.5 55.5t-134 -55.5t-55 -135.5z" />
<glyph unicode="&#xa5;" horiz-adv-x="1480" d="M63 1411h312l362 -543l367 543h313l-532 -752h325v-137h-338v-180h338v-135h-338v-207h-268v207h-336v135h336v180h-336v137h324z" />
<glyph unicode="&#xa6;" horiz-adv-x="460" d="M160 -250v789h141v-789h-141zM160 850v788h141v-788h-141z" />
<glyph unicode="&#xa7;" horiz-adv-x="1089" d="M125 -47l215 65q25 -80 79.5 -117.5t121.5 -37.5q83 0 139.5 52t56.5 140v385q0 90 -58 140.5t-147 50.5q-37 0 -90 -13v226q57 14 99 14q115 0 211 -50.5t154.5 -147.5t58.5 -220v-385q0 -123 -58.5 -219.5t-154.5 -147t-211 -50.5q-93 0 -177 34t-149.5 107t-89.5 174z M125 614v385q0 123 58.5 220t154.5 147.5t211 50.5q93 0 177 -34t149.5 -107t89.5 -174l-215 -66q-25 80 -79.5 118t-121.5 38q-83 0 -140 -52.5t-57 -140.5v-385q0 -90 58 -140t147 -50q41 0 90 12v-225q-57 -14 -98 -14q-115 0 -211 50.5t-154.5 147t-58.5 219.5z" />
<glyph unicode="&#xa8;" horiz-adv-x="1128" d="M246 1294q0 57 40.5 95t100.5 38q58 0 98.5 -38.5t40.5 -94.5t-40.5 -94.5t-98.5 -38.5q-60 0 -100.5 38t-40.5 95zM602 1294q0 57 40.5 95t100.5 38t100 -38t40 -95t-40 -95t-100 -38t-100.5 38t-40.5 95z" />
<glyph unicode="&#xa9;" horiz-adv-x="1640" d="M104 702q0 147 56 281t151.5 231.5t228 155t279.5 57.5t280 -57.5t228.5 -155t152 -231.5t56.5 -281q0 -148 -56.5 -281.5t-152 -230t-228.5 -153.5t-280 -57t-279.5 57t-228 153.5t-151.5 230t-56 281.5zM229 702q0 -162 78.5 -299t214.5 -217t297 -80t297 80t214.5 217 t78.5 299q0 163 -78.5 300.5t-214.5 217.5t-297 80t-297 -80t-214.5 -217.5t-78.5 -300.5zM457 692q0 154 106.5 261.5t261.5 107.5q152 0 281 -135l-94 -97q-95 95 -187 95q-97 0 -163 -68.5t-66 -163.5q0 -98 65.5 -165.5t163.5 -67.5q93 0 191 98l92 -102 q-60 -63 -134 -98t-149 -35q-155 0 -261.5 108t-106.5 262z" />
<glyph unicode="&#xaa;" horiz-adv-x="976" d="M106 1001q0 157 100.5 255t244.5 98q66 0 124 -27t95 -80v92h145v-675h-145v94q-35 -50 -95.5 -79.5t-123.5 -29.5q-144 0 -244.5 97.5t-100.5 254.5zM166 416v127h645v-127h-645zM258 1004q0 -91 58 -150t145 -59q86 0 147.5 57t61.5 152q0 94 -63.5 149t-145.5 55 q-88 0 -145.5 -56.5t-57.5 -147.5z" />
<glyph unicode="&#xab;" horiz-adv-x="1021" d="M84 477l283 424h200l-282 -424l282 -424h-200zM446 477l283 424h201l-283 -424l283 -424h-201z" />
<glyph unicode="&#xac;" horiz-adv-x="1296" d="M143 532v222h998v-531h-223v309h-775z" />
<glyph unicode="&#xad;" horiz-adv-x="976" d="M129 391v209h719v-209h-719z" />
<glyph unicode="&#xae;" horiz-adv-x="1640" d="M104 702q0 147 56 281t151.5 231.5t228 155t279.5 57.5t280 -57.5t228.5 -155t152 -231.5t56.5 -281q0 -148 -56.5 -281.5t-152 -230t-228.5 -153.5t-280 -57t-279.5 57t-228 153.5t-151.5 230t-56 281.5zM229 702q0 -162 78.5 -299t214.5 -217t297 -80t297 80t214.5 217 t78.5 299q0 163 -78.5 300.5t-214.5 217.5t-297 80t-297 -80t-214.5 -217.5t-78.5 -300.5zM573 338v723h281q112 0 172.5 -70.5t60.5 -167.5q0 -80 -38.5 -141.5t-118.5 -83.5l184 -260h-172l-180 250h-47v-250h-142zM715 727h135q45 0 71.5 28.5t26.5 67.5q0 40 -26 69.5 t-68 29.5h-139v-195z" />
<glyph unicode="&#xaf;" horiz-adv-x="1042" d="M246 1198v170h551v-170h-551z" />
<glyph unicode="&#xb0;" horiz-adv-x="763" d="M96 1143q0 117 84 200.5t201 83.5q118 0 202.5 -83.5t84.5 -200.5q0 -119 -84 -203t-203 -84q-117 0 -201 84.5t-84 202.5zM242 1143q0 -60 41 -101t98 -41q60 0 100.5 41t40.5 101t-40.5 99.5t-100.5 39.5q-58 0 -98.5 -40t-40.5 -99z" />
<glyph unicode="&#xb1;" horiz-adv-x="1118" d="M141 -2v195h836v-195h-836zM141 588v196h318v291h198v-291h320v-196h-320v-295h-198v295h-318z" />
<glyph unicode="&#xb2;" horiz-adv-x="649" d="M59 1454q19 106 91 169t176 63q106 0 180 -67t74 -171q0 -107 -84 -201q-44 -49 -92.5 -105.5t-98.5 -111.5h262v-143h-504v76l322 383q45 55 45 102q0 42 -30.5 68t-80.5 26q-48 0 -81.5 -31.5t-40.5 -85.5z" />
<glyph unicode="&#xb3;" horiz-adv-x="655" d="M41 1040l127 66q19 -36 53.5 -60t75.5 -28q52 -4 90 26.5t43 73.5q0 18 -4.5 35.5t-16.5 38t-38.5 33t-63.5 12.5h-86v129h86q50 0 73 37t17 65q-2 31 -26.5 55.5t-63.5 24.5q-65 3 -104 -53q-112 75 -113 76q36 57 99 88t139 27q101 -6 164 -69t63 -151q0 -46 -27 -88 t-71 -67q62 -24 99 -85.5t32 -125.5q-7 -100 -96.5 -165.5t-204.5 -57.5q-81 6 -147 50.5t-99 112.5z" />
<glyph unicode="&#xb4;" horiz-adv-x="1103" d="M264 1114l215 334h262l-282 -334h-195z" />
<glyph unicode="&#xb5;" d="M156 -365v1321h250v-524q0 -107 52 -158t124 -51q87 0 146.5 54.5t59.5 168.5v510h250v-956h-250v127q-40 -69 -111.5 -108t-144.5 -39q-98 0 -161 57l18 -258v-144h-233z" />
<glyph unicode="&#xb6;" horiz-adv-x="1417" d="M70 967q0 185 129 314.5t315 129.5h176v-1438v-14.5v-14t-0.5 -12t-1.5 -11.5l-3 -9t-5 -8.5t-7.5 -6t-11 -5t-14.5 -2.5t-18 -1h-135v633q-177 12 -300.5 139.5t-123.5 305.5zM492 -225h223q41 0 70.5 28t29.5 66v1542h248q116 0 198 -83.5t82 -197.5v-174h-184v162 q0 41 -27 70t-65 29h-59v-1338q0 -106 -86 -193t-195 -87h-57h-178v176z" />
<glyph unicode="&#xb7;" horiz-adv-x="569" d="M123 641q0 67 46.5 111.5t113.5 44.5q68 0 115.5 -44.5t47.5 -111.5t-47.5 -111.5t-115.5 -44.5q-67 0 -113.5 44.5t-46.5 111.5z" />
<glyph unicode="&#xb8;" horiz-adv-x="1081" d="M332 -190l141 -9q0 -10 2 -16q6 -31 8 -35q10 -26 34.5 -37.5t53.5 -3.5q28 10 37.5 37.5t-2.5 56.5l-94 256h121l104 -192q19 -35 19 -94q0 -83 -63 -146t-152 -63q-88 0 -148.5 66t-60.5 180z" />
<glyph unicode="&#xb9;" horiz-adv-x="434" d="M45 1407v133l285 143v-796h-150v581z" />
<glyph unicode="&#xba;" horiz-adv-x="950" d="M115 1006q0 154 103.5 251t250.5 97t250.5 -97t103.5 -251q0 -158 -103.5 -257.5t-250.5 -99.5t-250.5 99.5t-103.5 257.5zM152 416v127h655v-127h-655zM262 1006q0 -96 59 -153.5t148 -57.5t148 57.5t59 153.5q0 90 -60 146t-147 56t-147 -56t-60 -146z" />
<glyph unicode="&#xbb;" horiz-adv-x="1021" d="M92 53l283 424l-283 424h201l282 -424l-282 -424h-201zM455 53l282 424l-282 424h200l283 -424l-283 -424h-200z" />
<glyph unicode="&#xbc;" horiz-adv-x="1591" d="M80 1073v135l285 142v-797h-150v582zM213 -20l926 1390h155l-921 -1390h-160zM872 170l396 618h143v-487h105v-131h-105v-170h-149v170h-390zM1094 301h168v266z" />
<glyph unicode="&#xbd;" horiz-adv-x="1622" d="M80 1073v135l285 142v-797h-150v582zM213 -20l926 1390h155l-921 -1390h-160zM1010 567q19 109 90.5 171.5t175.5 62.5q106 0 180 -67.5t74 -170.5q0 -107 -84 -201q-45 -50 -92.5 -106.5t-98.5 -112.5h263v-143h-504v78l321 383q45 55 45 102q0 42 -30 68t-80 26 q-48 0 -82 -31.5t-41 -84.5z" />
<glyph unicode="&#xbe;" horiz-adv-x="1746" d="M74 709l127 65q20 -38 53.5 -63t75.5 -25q52 -4 90 25.5t43 72.5q0 27 -7.5 51.5t-37 47t-78.5 22.5h-86v129h86q50 0 73 37.5t17 65.5q-2 31 -26.5 55.5t-63.5 24.5q-65 3 -104 -56l-113 78q36 57 98.5 88t138.5 27q101 -6 164.5 -68.5t63.5 -150.5q0 -46 -27.5 -88.5 t-71.5 -67.5q62 -24 99.5 -85t32.5 -128q-7 -99 -97 -165t-205 -58q-80 6 -146 51.5t-99 114.5zM369 -20l925 1390h156l-922 -1390h-159zM1028 170l395 618h144v-487h104v-131h-104v-170h-150v170h-389zM1249 301h168v266z" />
<glyph unicode="&#xbf;" horiz-adv-x="987" d="M68 -78q0 144 78.5 246.5t203.5 140.5q64 21 91.5 57t27.5 107l4 74h244l4 -74q0 -78 -15 -136t-34.5 -95t-69 -73.5t-87.5 -56.5t-120 -59q-78 -33 -78 -133q0 -65 52 -106t127 -41t124.5 49t49.5 129h248q0 -194 -118 -311t-304 -117q-187 0 -307.5 109t-120.5 290z M430 819q0 68 47.5 113t114.5 45t114.5 -45t47.5 -113q0 -65 -47.5 -110t-114.5 -45t-114.5 45t-47.5 110z" />
<glyph unicode="&#xc0;" horiz-adv-x="1339" d="M0 0l528 1411h283l528 -1411h-276l-129 342h-526l-129 -342h-279zM309 1903h262l215 -334h-194zM496 571h352l-178 539z" />
<glyph unicode="&#xc1;" horiz-adv-x="1339" d="M0 0l528 1411h283l528 -1411h-276l-129 342h-526l-129 -342h-279zM496 571h352l-178 539zM547 1569l215 334h262l-283 -334h-194z" />
<glyph unicode="&#xc2;" horiz-adv-x="1339" d="M0 0l528 1411h283l528 -1411h-276l-129 342h-526l-129 -342h-279zM319 1575l224 334h252l225 -334h-193l-159 180l-156 -180h-193zM496 571h352l-178 539z" />
<glyph unicode="&#xc3;" horiz-adv-x="1339" d="M0 0l528 1411h283l528 -1411h-276l-129 342h-526l-129 -342h-279zM381 1610q4 70 23 122.5t48 80t60.5 40.5t65.5 13q30 0 58.5 -13t46.5 -29t38.5 -29t36.5 -13q17 0 35.5 20t19.5 64h143q-7 -131 -66.5 -191.5t-131.5 -60.5q-30 0 -58.5 13t-47 29t-39 29t-35.5 13 q-16 0 -34.5 -22t-19.5 -66h-143zM496 571h352l-178 539z" />
<glyph unicode="&#xc4;" horiz-adv-x="1339" d="M0 0l528 1411h283l528 -1411h-276l-129 342h-526l-129 -342h-279zM350 1749q0 57 41 95t101 38q58 0 98.5 -38.5t40.5 -94.5t-40.5 -94.5t-98.5 -38.5q-60 0 -101 38t-41 95zM496 571h352l-178 539zM707 1749q0 57 40.5 95t100.5 38t99.5 -38t39.5 -95t-39.5 -95 t-99.5 -38t-100.5 38t-40.5 95z" />
<glyph unicode="&#xc5;" horiz-adv-x="1339" d="M0 0l528 1411h283l528 -1411h-276l-129 342h-526l-129 -342h-279zM432 1794q0 101 68.5 170.5t165.5 69.5q101 0 170 -69.5t69 -170.5q0 -98 -69 -165.5t-170 -67.5q-97 0 -165.5 67.5t-68.5 165.5zM496 571h352l-178 539zM549 1794q0 -49 34.5 -83t82.5 -34 q51 0 85.5 33.5t34.5 83.5q0 51 -34.5 86t-85.5 35q-48 0 -82.5 -35t-34.5 -86z" />
<glyph unicode="&#xc6;" horiz-adv-x="1910" d="M-29 0l891 1411h926v-237h-610v-363h534v-233h-534v-340h630v-238h-890v2l-3 -2v334h-419l-213 -334h-312zM645 586h270v471z" />
<glyph unicode="&#xc7;" horiz-adv-x="1421" d="M92 702q0 197 93.5 363.5t257 264t360.5 97.5q178 0 326 -73.5t241 -204.5l-209 -150q-64 83 -156.5 132t-201.5 49q-190 0 -319.5 -140t-129.5 -338q0 -199 129 -337t320 -138q113 0 208 51t158 140l207 -152q-88 -124 -220.5 -198t-295.5 -86l64 -115q18 -33 18 -94 q0 -83 -63 -146t-152 -63q-88 0 -148.5 66t-60.5 180l141 -9q0 -7 3 -16q6 -31 8 -35q10 -26 34.5 -37.5t53.5 -3.5q28 10 37.5 37.5t-2.5 56.5l-68 181q-179 19 -324 119t-227 257.5t-82 341.5z" />
<glyph unicode="&#xc8;" horiz-adv-x="1171" d="M176 0v1411h873v-233h-613v-367h537v-231h-537v-347h633v-233h-893zM311 1903h262l215 -334h-194z" />
<glyph unicode="&#xc9;" horiz-adv-x="1171" d="M176 0v1411h873v-233h-613v-367h537v-231h-537v-347h633v-233h-893zM391 1569l215 334h262l-282 -334h-195z" />
<glyph unicode="&#xca;" horiz-adv-x="1171" d="M176 0v1411h873v-233h-613v-367h537v-231h-537v-347h633v-233h-893zM231 1575l224 334h252l225 -334h-193l-159 180l-156 -180h-193z" />
<glyph unicode="&#xcb;" horiz-adv-x="1171" d="M176 0v1411h873v-233h-613v-367h537v-231h-537v-347h633v-233h-893zM291 1749q0 57 40.5 95t100.5 38q58 0 98.5 -38.5t40.5 -94.5t-40.5 -94.5t-98.5 -38.5q-60 0 -100.5 38t-40.5 95zM647 1749q0 57 40.5 95t100.5 38t100 -38t40 -95t-40 -95t-100 -38t-100.5 38 t-40.5 95z" />
<glyph unicode="&#xcc;" horiz-adv-x="612" d="M-43 1903h262l215 -334h-194zM176 0v1411h260v-1411h-260z" />
<glyph unicode="&#xcd;" horiz-adv-x="612" d="M176 0v1411h260v-1411h-260zM178 1569l215 334h262l-282 -334h-195z" />
<glyph unicode="&#xce;" horiz-adv-x="612" d="M-43 1575l223 334h252l225 -334h-192l-160 180l-155 -180h-193zM176 0v1411h260v-1411h-260z" />
<glyph unicode="&#xcf;" horiz-adv-x="612" d="M-12 1749q0 57 40.5 95t100.5 38q58 0 98.5 -38.5t40.5 -94.5t-40.5 -94.5t-98.5 -38.5q-60 0 -100.5 38t-40.5 95zM176 0v1411h260v-1411h-260zM344 1749q0 57 40.5 95t100.5 38t100 -38t40 -95t-40 -95t-100 -38t-100.5 38t-40.5 95z" />
<glyph unicode="&#xd0;" horiz-adv-x="1478" d="M6 600v180h193v631h546q198 0 343.5 -94t218.5 -253.5t73 -361.5t-73 -359.5t-218.5 -250t-343.5 -92.5h-546v600h-193zM459 244h286q180 0 277.5 129t97.5 329q0 130 -40.5 233.5t-127 167.5t-207.5 64h-286v-387h282v-180h-282v-356z" />
<glyph unicode="&#xd1;" horiz-adv-x="1396" d="M176 0v1411h244l538 -917v917h263v-1411h-240l-545 928v-928h-260zM410 1610q4 70 23 122.5t48 80t60 40.5t65 13q30 0 58.5 -13t46.5 -29t38.5 -29t36.5 -13q17 0 36 20.5t20 63.5h143q-4 -69 -24 -120.5t-50 -78.5t-61.5 -40t-63.5 -13q-30 0 -58.5 13t-47 29t-39 29 t-35.5 13q-16 0 -34 -22t-19 -66h-143z" />
<glyph unicode="&#xd2;" horiz-adv-x="1611" d="M90 702q0 197 94.5 363.5t259 264t361.5 97.5t362 -97.5t260 -264t95 -363.5q0 -196 -95 -362t-260 -263t-362 -97t-361.5 97t-259 263t-94.5 362zM350 702q0 -194 132 -329t323 -135q189 0 322 135.5t133 328.5q0 126 -60.5 233.5t-165.5 170.5t-229 63 q-126 0 -230.5 -63t-164.5 -170.5t-60 -233.5zM426 1903h262l215 -334h-194z" />
<glyph unicode="&#xd3;" horiz-adv-x="1611" d="M90 702q0 197 94.5 363.5t259 264t361.5 97.5t362 -97.5t260 -264t95 -363.5q0 -196 -95 -362t-260 -263t-362 -97t-361.5 97t-259 263t-94.5 362zM350 702q0 -194 132 -329t323 -135q189 0 322 135.5t133 328.5q0 126 -60.5 233.5t-165.5 170.5t-229 63 q-126 0 -230.5 -63t-164.5 -170.5t-60 -233.5zM694 1569l215 334h262l-282 -334h-195z" />
<glyph unicode="&#xd4;" horiz-adv-x="1611" d="M90 702q0 197 94.5 363.5t259 264t361.5 97.5t362 -97.5t260 -264t95 -363.5q0 -196 -95 -362t-260 -263t-362 -97t-361.5 97t-259 263t-94.5 362zM350 702q0 -194 132 -329t323 -135q189 0 322 135.5t133 328.5q0 126 -60.5 233.5t-165.5 170.5t-229 63 q-126 0 -230.5 -63t-164.5 -170.5t-60 -233.5zM455 1575l223 334h252l225 -334h-192l-160 180l-156 -180h-192z" />
<glyph unicode="&#xd5;" horiz-adv-x="1611" d="M90 702q0 197 94.5 363.5t259 264t361.5 97.5t362 -97.5t260 -264t95 -363.5q0 -196 -95 -362t-260 -263t-362 -97t-361.5 97t-259 263t-94.5 362zM350 702q0 -194 132 -329t323 -135q189 0 322 135.5t133 328.5q0 126 -60.5 233.5t-165.5 170.5t-229 63 q-126 0 -230.5 -63t-164.5 -170.5t-60 -233.5zM518 1610q4 70 23 122.5t48 80t60.5 40.5t65.5 13q30 0 58.5 -13t46.5 -29t38.5 -29t36.5 -13q17 0 35.5 20t19.5 64h144q-4 -69 -24 -120.5t-50 -78.5t-61.5 -40t-63.5 -13q-30 0 -58.5 13t-47 29t-39 29t-35.5 13 q-16 0 -34 -22t-19 -66h-144z" />
<glyph unicode="&#xd6;" horiz-adv-x="1611" d="M90 702q0 197 94.5 363.5t259 264t361.5 97.5t362 -97.5t260 -264t95 -363.5q0 -196 -95 -362t-260 -263t-362 -97t-361.5 97t-259 263t-94.5 362zM350 702q0 -194 132 -329t323 -135q189 0 322 135.5t133 328.5q0 126 -60.5 233.5t-165.5 170.5t-229 63 q-126 0 -230.5 -63t-164.5 -170.5t-60 -233.5zM487 1749q0 57 41 95t101 38q58 0 98.5 -38.5t40.5 -94.5t-40.5 -94.5t-98.5 -38.5q-60 0 -101 38t-41 95zM844 1749q0 57 40.5 95t100.5 38t99.5 -38t39.5 -95t-39.5 -95t-99.5 -38t-100.5 38t-40.5 95z" />
<glyph unicode="&#xd7;" horiz-adv-x="1007" d="M121 784l139 138l244 -242l246 246l139 -142l-246 -243l246 -244l-139 -141l-246 243l-242 -239l-139 139l242 242z" />
<glyph unicode="&#xd8;" horiz-adv-x="1607" d="M88 702q0 197 94.5 363.5t259 264t361.5 97.5q262 0 457 -165l161 165l97 -94l-164 -168q166 -200 166 -463q0 -196 -95 -362t-260 -263t-362 -97q-232 0 -414 133q-26 15 -35 22l-164 -168l-96 96l164 168q-170 207 -170 471zM348 702q0 -155 92 -284l637 657 q-118 94 -274 94q-126 0 -230.5 -63t-164.5 -170.5t-60 -233.5zM537 324q115 -86 266 -86q189 0 321.5 135.5t132.5 328.5q0 147 -88 275z" />
<glyph unicode="&#xd9;" horiz-adv-x="1394" d="M162 498v913h266v-913q0 -119 80 -195t190 -76t191.5 76t81.5 195v913h262v-913q0 -115 -43.5 -213.5t-116.5 -164.5t-170.5 -103t-204.5 -37q-145 0 -266.5 63t-195.5 182.5t-74 272.5zM375 1903h262l215 -334h-195z" />
<glyph unicode="&#xda;" horiz-adv-x="1394" d="M162 498v913h266v-913q0 -119 80 -195t190 -76t191.5 76t81.5 195v913h262v-913q0 -115 -43.5 -213.5t-116.5 -164.5t-170.5 -103t-204.5 -37q-145 0 -266.5 63t-195.5 182.5t-74 272.5zM524 1569l215 334h262l-282 -334h-195z" />
<glyph unicode="&#xdb;" horiz-adv-x="1394" d="M162 498v913h266v-913q0 -119 80 -195t190 -76t191.5 76t81.5 195v913h262v-913q0 -115 -43.5 -213.5t-116.5 -164.5t-170.5 -103t-204.5 -37q-145 0 -266.5 63t-195.5 182.5t-74 272.5zM346 1575l223 334h252l226 -334h-193l-160 180l-155 -180h-193z" />
<glyph unicode="&#xdc;" horiz-adv-x="1394" d="M162 498v913h266v-913q0 -119 80 -195t190 -76t191.5 76t81.5 195v913h262v-913q0 -115 -43.5 -213.5t-116.5 -164.5t-170.5 -103t-204.5 -37q-145 0 -266.5 63t-195.5 182.5t-74 272.5zM379 1749q0 57 40.5 95t100.5 38q58 0 98.5 -38.5t40.5 -94.5t-40.5 -94.5 t-98.5 -38.5q-60 0 -100.5 38t-40.5 95zM735 1749q0 57 41 95t101 38t99.5 -38t39.5 -95t-39.5 -95t-99.5 -38t-101 38t-41 95z" />
<glyph unicode="&#xdd;" horiz-adv-x="1318" d="M-16 1411h311l362 -543l367 543h313l-544 -772v-639h-269v643zM508 1569l215 334h262l-283 -334h-194z" />
<glyph unicode="&#xde;" horiz-adv-x="1173" d="M176 0v1411h260v-237h232q190 0 318 -124t128 -327t-128 -330t-318 -127h-232v-266h-260zM436 496h221q81 0 140 62t59 161q0 101 -60 161.5t-145 65.5h-215v-450z" />
<glyph unicode="&#xdf;" horiz-adv-x="1611" d="M96 819h1149q-20 94 -71.5 168.5t-119.5 119t-150 62.5t-162 6.5t-156.5 -57t-132.5 -121.5l-211 152q68 95 161.5 159.5t195 93t210.5 26.5t210 -33t192.5 -93.5t159.5 -147t109 -201t42 -248.5q0 -197 -95 -363.5t-260.5 -264t-363.5 -97.5q-163 0 -307 70.5t-239 185 t-140 269t-21 314.5zM365 584q42 -168 165.5 -256t274.5 -88q153 0 275.5 88.5t164.5 255.5h-880z" />
<glyph unicode="&#xe0;" horiz-adv-x="1257" d="M82 479q0 111 40.5 206t108.5 158t155.5 98.5t182.5 35.5q78 0 163 -34t134 -105v118h250v-956h-250v123q-41 -68 -129 -104.5t-168 -36.5q-127 0 -237.5 59.5t-180 175t-69.5 262.5zM315 1448h263l215 -334h-195zM340 479q0 -114 78 -186t186 -72t185 70t77 188 q0 117 -78.5 187.5t-183.5 70.5q-108 0 -186 -72t-78 -186z" />
<glyph unicode="&#xe1;" horiz-adv-x="1257" d="M82 479q0 111 40.5 206t108.5 158t155.5 98.5t182.5 35.5q78 0 163 -34t134 -105v118h250v-956h-250v123q-41 -68 -129 -104.5t-168 -36.5q-127 0 -237.5 59.5t-180 175t-69.5 262.5zM340 479q0 -114 78 -186t186 -72t185 70t77 188q0 117 -78.5 187.5t-183.5 70.5 q-108 0 -186 -72t-78 -186zM449 1114l215 334h262l-283 -334h-194z" />
<glyph unicode="&#xe2;" horiz-adv-x="1257" d="M82 479q0 111 40.5 206t108.5 158t155.5 98.5t182.5 35.5q78 0 163 -34t134 -105v118h250v-956h-250v123q-41 -68 -129 -104.5t-168 -36.5q-127 0 -237.5 59.5t-180 175t-69.5 262.5zM279 1120l223 334h252l225 -334h-193l-159 180l-156 -180h-192zM340 479 q0 -114 78 -186t186 -72t185 70t77 188q0 117 -78.5 187.5t-183.5 70.5q-108 0 -186 -72t-78 -186z" />
<glyph unicode="&#xe3;" horiz-adv-x="1257" d="M82 479q0 111 40.5 206t108.5 158t155.5 98.5t182.5 35.5q78 0 163 -34t134 -105v118h250v-956h-250v123q-41 -68 -129 -104.5t-168 -36.5q-127 0 -237.5 59.5t-180 175t-69.5 262.5zM340 479q0 -114 78 -186t186 -72t185 70t77 188q0 117 -78.5 187.5t-183.5 70.5 q-108 0 -186 -72t-78 -186zM342 1155q4 70 23 122.5t48 80t60.5 40.5t65.5 13q30 0 58.5 -13t46.5 -29t38.5 -29t36.5 -13q17 0 35.5 20t19.5 64h144q-4 -69 -24 -120.5t-50 -78.5t-61.5 -40t-63.5 -13q-30 0 -58.5 13t-47 29t-39 29t-35.5 13q-17 0 -35 -22t-19 -66h-143z " />
<glyph unicode="&#xe4;" horiz-adv-x="1257" d="M82 479q0 111 40.5 206t108.5 158t155.5 98.5t182.5 35.5q78 0 163 -34t134 -105v118h250v-956h-250v123q-41 -68 -129 -104.5t-168 -36.5q-127 0 -237.5 59.5t-180 175t-69.5 262.5zM311 1294q0 57 41 95t101 38q58 0 98.5 -38.5t40.5 -94.5t-40.5 -94.5t-98.5 -38.5 q-60 0 -101 38t-41 95zM340 479q0 -114 78 -186t186 -72t185 70t77 188q0 117 -78.5 187.5t-183.5 70.5q-108 0 -186 -72t-78 -186zM668 1294q0 57 40.5 95t100.5 38t99.5 -38t39.5 -95t-39.5 -95t-99.5 -38t-100.5 38t-40.5 95z" />
<glyph unicode="&#xe5;" horiz-adv-x="1257" d="M82 479q0 111 40.5 206t108.5 158t155.5 98.5t182.5 35.5q78 0 163 -34t134 -105v118h250v-956h-250v123q-41 -68 -129 -104.5t-168 -36.5q-127 0 -237.5 59.5t-180 175t-69.5 262.5zM340 479q0 -114 78 -186t186 -72t185 70t77 188q0 117 -78.5 187.5t-183.5 70.5 q-108 0 -186 -72t-78 -186zM393 1339q0 101 68.5 170.5t165.5 69.5q101 0 170 -69.5t69 -170.5q0 -98 -69 -165.5t-170 -67.5q-97 0 -165.5 67.5t-68.5 165.5zM510 1339q0 -49 34.5 -82.5t82.5 -33.5q51 0 86 33.5t35 82.5q0 51 -35 86t-86 35q-48 0 -82.5 -35t-34.5 -86z " />
<glyph unicode="&#xe6;" horiz-adv-x="2033" d="M82 479q0 111 40.5 206t108.5 158t155.5 98.5t182.5 35.5q78 0 163 -34t134 -105v118h232v-153q66 84 164.5 129t216.5 45q208 0 345.5 -136.5t137.5 -359.5q0 -40 -4 -86h-729q13 -96 85 -150.5t179 -54.5q75 0 140.5 32t99.5 91q40 -22 192 -102 q-62 -116 -183.5 -173.5t-262.5 -57.5q-117 0 -216 46t-165 132v-158h-232v123q-41 -68 -129 -104.5t-168 -36.5q-127 0 -237.5 59.5t-180 175t-69.5 262.5zM340 479q0 -114 78 -186t186 -72t185 70t77 188q0 117 -78.5 187.5t-183.5 70.5q-108 0 -186 -72t-78 -186z M1227 565h491q-12 96 -77.5 149.5t-161.5 53.5q-100 0 -167.5 -53t-84.5 -150z" />
<glyph unicode="&#xe7;" horiz-adv-x="1069" d="M82 481q0 111 42 205t113 157t164.5 98.5t196.5 35.5q123 0 226.5 -48t170.5 -138l-198 -150q-70 94 -199 94q-109 0 -188.5 -70.5t-79.5 -183.5q0 -114 80 -188t188 -74q127 0 199 96l200 -147q-60 -78 -149 -125.5t-193 -58.5l64 -117q18 -33 18 -94q0 -83 -63 -146 t-152 -63q-88 0 -148.5 66t-60.5 180l142 -9q0 -10 2 -16q6 -31 8 -35q10 -26 34.5 -37.5t53.5 -3.5q28 10 37.5 37.5t-2.5 56.5l-68 183q-186 26 -312 162t-126 333z" />
<glyph unicode="&#xe8;" horiz-adv-x="1132" d="M82 481q0 148 67.5 262t180 174t248.5 60q135 0 245 -60t175 -174t65 -262q0 -40 -4 -86h-729q12 -95 84.5 -150t179.5 -55q75 0 140.5 32t99.5 91q70 -39 190 -102q-63 -117 -183.5 -174t-262.5 -57q-136 0 -248.5 61.5t-180 177t-67.5 262.5zM229 1448h263l215 -334 h-195zM328 565h491q-13 96 -78.5 149.5t-160.5 53.5q-101 0 -170 -53.5t-82 -149.5z" />
<glyph unicode="&#xe9;" horiz-adv-x="1132" d="M82 481q0 148 67.5 262t180 174t248.5 60q135 0 245 -60t175 -174t65 -262q0 -40 -4 -86h-729q12 -95 84.5 -150t179.5 -55q75 0 140.5 32t99.5 91q70 -39 190 -102q-63 -117 -183.5 -174t-262.5 -57q-136 0 -248.5 61.5t-180 177t-67.5 262.5zM328 565h491 q-13 96 -78.5 149.5t-160.5 53.5q-101 0 -170 -53.5t-82 -149.5zM465 1114l215 334h262l-283 -334h-194z" />
<glyph unicode="&#xea;" horiz-adv-x="1132" d="M82 481q0 148 67.5 262t180 174t248.5 60q135 0 245 -60t175 -174t65 -262q0 -40 -4 -86h-729q12 -95 84.5 -150t179.5 -55q75 0 140.5 32t99.5 91q70 -39 190 -102q-63 -117 -183.5 -174t-262.5 -57q-136 0 -248.5 61.5t-180 177t-67.5 262.5zM221 1120l223 334h252 l226 -334h-193l-160 180l-155 -180h-193zM328 565h491q-13 96 -78.5 149.5t-160.5 53.5q-101 0 -170 -53.5t-82 -149.5z" />
<glyph unicode="&#xeb;" horiz-adv-x="1132" d="M82 481q0 148 67.5 262t180 174t248.5 60q135 0 245 -60t175 -174t65 -262q0 -40 -4 -86h-729q12 -95 84.5 -150t179.5 -55q75 0 140.5 32t99.5 91q70 -39 190 -102q-63 -117 -183.5 -174t-262.5 -57q-136 0 -248.5 61.5t-180 177t-67.5 262.5zM254 1294q0 57 40.5 95 t100.5 38q58 0 99 -38.5t41 -94.5t-41 -94.5t-99 -38.5q-60 0 -100.5 38t-40.5 95zM328 565h491q-13 96 -78.5 149.5t-160.5 53.5q-101 0 -170 -53.5t-82 -149.5zM610 1294q0 57 41 95t101 38t99.5 -38t39.5 -95t-39.5 -95t-99.5 -38t-101 38t-41 95z" />
<glyph unicode="&#xec;" horiz-adv-x="530" d="M-94 1448h262l215 -334h-195zM141 0v956h248v-956h-248z" />
<glyph unicode="&#xed;" horiz-adv-x="530" d="M139 1114l215 334h262l-282 -334h-195zM141 0v956h248v-956h-248z" />
<glyph unicode="&#xee;" horiz-adv-x="530" d="M-84 1120l223 334h252l225 -334h-192l-160 180l-155 -180h-193zM141 0v956h248v-956h-248z" />
<glyph unicode="&#xef;" horiz-adv-x="530" d="M-53 1294q0 57 40.5 95t100.5 38q58 0 98.5 -38.5t40.5 -94.5t-40.5 -94.5t-98.5 -38.5q-60 0 -100.5 38t-40.5 95zM141 0v956h248v-956h-248zM303 1294q0 57 40.5 95t100.5 38t100 -38t40 -95t-40 -95t-100 -38t-100.5 38t-40.5 95z" />
<glyph unicode="&#xf0;" d="M82 479q0 200 125.5 335t308.5 147q37 3 90 -7l-129 156l-174 -88l-61 98l164 84l-154 207h252l86 -115l162 80l71 -88l-161 -84l321 -428q94 -131 94 -297q0 -146 -68 -261.5t-181 -176.5t-248 -61t-248 61t-181.5 176.5t-68.5 261.5zM328 479q0 -114 73 -185t179 -71 q107 0 180.5 71t73.5 185q0 113 -73.5 181.5t-180.5 68.5q-106 0 -179 -69t-73 -181z" />
<glyph unicode="&#xf1;" d="M141 0v956h250v-141q40 76 118.5 119t166.5 43q169 0 262.5 -105.5t93.5 -306.5v-565h-250v520q0 102 -49 157.5t-133 55.5q-94 0 -151.5 -53t-57.5 -170v-510h-250zM293 1155q4 70 23 122.5t48 80t60 40.5t65 13q38 0 72.5 -21t62 -42t46.5 -21q17 0 35.5 20t19.5 64 h143q-7 -131 -66.5 -191.5t-131.5 -60.5q-38 0 -73 21t-62.5 42t-45.5 21q-16 0 -34 -22t-19 -66h-143z" />
<glyph unicode="&#xf2;" horiz-adv-x="1159" d="M82 481q0 147 68.5 261.5t181 174.5t248.5 60t248.5 -60t180.5 -174.5t68 -261.5q0 -146 -68 -261.5t-181 -176.5t-248 -61t-248 61t-181.5 176.5t-68.5 261.5zM236 1448h262l215 -334h-195zM330 481q0 -115 71.5 -185.5t178.5 -70.5t178 70.5t71 185.5q0 113 -71 181.5 t-178 68.5t-178.5 -68.5t-71.5 -181.5z" />
<glyph unicode="&#xf3;" horiz-adv-x="1159" d="M82 481q0 147 68.5 261.5t181 174.5t248.5 60t248.5 -60t180.5 -174.5t68 -261.5q0 -146 -68 -261.5t-181 -176.5t-248 -61t-248 61t-181.5 176.5t-68.5 261.5zM330 481q0 -115 71.5 -185.5t178.5 -70.5t178 70.5t71 185.5q0 113 -71 181.5t-178 68.5t-178.5 -68.5 t-71.5 -181.5zM449 1114l215 334h262l-283 -334h-194z" />
<glyph unicode="&#xf4;" horiz-adv-x="1159" d="M82 481q0 147 68.5 261.5t181 174.5t248.5 60t248.5 -60t180.5 -174.5t68 -261.5q0 -146 -68 -261.5t-181 -176.5t-248 -61t-248 61t-181.5 176.5t-68.5 261.5zM229 1120l224 334h252l225 -334h-193l-159 180l-156 -180h-193zM330 481q0 -115 71.5 -185.5t178.5 -70.5 t178 70.5t71 185.5q0 113 -71 181.5t-178 68.5t-178.5 -68.5t-71.5 -181.5z" />
<glyph unicode="&#xf5;" horiz-adv-x="1159" d="M82 481q0 147 68.5 261.5t181 174.5t248.5 60t248.5 -60t180.5 -174.5t68 -261.5q0 -146 -68 -261.5t-181 -176.5t-248 -61t-248 61t-181.5 176.5t-68.5 261.5zM291 1155q4 70 23 122.5t48 80t60 40.5t65 13q38 0 72.5 -21t62 -42t46.5 -21q17 0 35.5 20t19.5 64h143 q-7 -131 -66.5 -191.5t-131.5 -60.5q-38 0 -73 21t-62.5 42t-45.5 21q-16 0 -34 -22t-19 -66h-143zM330 481q0 -115 71.5 -185.5t178.5 -70.5t178 70.5t71 185.5q0 113 -71 181.5t-178 68.5t-178.5 -68.5t-71.5 -181.5z" />
<glyph unicode="&#xf6;" horiz-adv-x="1159" d="M82 481q0 147 68.5 261.5t181 174.5t248.5 60t248.5 -60t180.5 -174.5t68 -261.5q0 -146 -68 -261.5t-181 -176.5t-248 -61t-248 61t-181.5 176.5t-68.5 261.5zM260 1294q0 57 40.5 95t100.5 38q58 0 99 -38.5t41 -94.5t-41 -94.5t-99 -38.5q-60 0 -100.5 38t-40.5 95z M330 481q0 -115 71.5 -185.5t178.5 -70.5t178 70.5t71 185.5q0 113 -71 181.5t-178 68.5t-178.5 -68.5t-71.5 -181.5zM616 1294q0 57 41 95t101 38t99.5 -38t39.5 -95t-39.5 -95t-99.5 -38t-101 38t-41 95z" />
<glyph unicode="&#xf7;" d="M115 414v186h932v-186h-932zM430 135q0 62 45 104t107 42t106.5 -42t44.5 -104t-44.5 -103.5t-106.5 -41.5q-63 0 -107.5 41.5t-44.5 103.5zM430 885q0 62 44.5 102.5t107.5 40.5t107 -40.5t44 -102.5q0 -65 -44 -105.5t-107 -40.5t-107.5 41t-44.5 105z" />
<glyph unicode="&#xf8;" horiz-adv-x="1159" d="M74 43l114 119q-106 128 -106 317q0 146 68.5 261t181.5 176t248 61q167 0 307 -100l104 108l96 -94l-106 -109q96 -130 96 -303q0 -146 -68 -261.5t-181 -176.5t-248 -61q-166 0 -291 88l-119 -121zM330 479q0 -81 35 -137l344 354q-59 35 -129 35q-106 0 -178 -70 t-72 -182zM465 250q53 -27 115 -27q107 0 178 70.5t71 185.5q0 68 -26 119z" />
<glyph unicode="&#xf9;" d="M129 391v565h252v-520q0 -108 53.5 -160.5t128.5 -52.5q88 0 147.5 54t59.5 169v510h250v-956h-250v135q-38 -73 -112.5 -114t-151.5 -41q-174 0 -275.5 106.5t-101.5 304.5zM276 1448h261l217 -334h-197z" />
<glyph unicode="&#xfa;" d="M129 391v565h252v-520q0 -108 53.5 -160.5t128.5 -52.5q88 0 147.5 54t59.5 169v510h250v-956h-250v135q-38 -73 -112.5 -114t-151.5 -41q-174 0 -275.5 106.5t-101.5 304.5zM422 1114l217 334h262l-283 -334h-196z" />
<glyph unicode="&#xfb;" d="M129 391v565h252v-520q0 -108 53.5 -160.5t128.5 -52.5q88 0 147.5 54t59.5 169v510h250v-956h-250v135q-38 -73 -112.5 -114t-151.5 -41q-174 0 -275.5 106.5t-101.5 304.5zM219 1120l223 334h252l226 -334h-193l-160 180l-155 -180h-193z" />
<glyph unicode="&#xfc;" d="M129 391v565h252v-520q0 -108 53.5 -160.5t128.5 -52.5q88 0 147.5 54t59.5 169v510h250v-956h-250v135q-38 -73 -112.5 -114t-151.5 -41q-174 0 -275.5 106.5t-101.5 304.5zM256 1300q0 57 40.5 95.5t100.5 38.5q57 0 97.5 -38.5t40.5 -95.5t-40.5 -95t-97.5 -38 q-60 0 -100.5 38t-40.5 95zM612 1300q0 57 41 95.5t101 38.5q57 0 98 -38.5t41 -95.5q0 -56 -40.5 -94.5t-98.5 -38.5q-60 0 -101 38t-41 95z" />
<glyph unicode="&#xfd;" horiz-adv-x="1046" d="M18 956h267l237 -596l240 596h266l-592 -1423h-264l219 541zM344 1114l215 334h262l-282 -334h-195z" />
<glyph unicode="&#xfe;" horiz-adv-x="1234" d="M141 -465v1942h248v-637q40 65 120 101t173 36q95 0 180.5 -35.5t150 -99.5t102.5 -158.5t38 -206.5q0 -110 -38 -204t-102.5 -157.5t-150 -99.5t-180.5 -36q-92 0 -172 37t-121 102v-584h-248zM393 481q0 -118 74 -190t180 -72t178 73t72 189q0 113 -72 184.5t-178 71.5 q-103 0 -178.5 -69.5t-75.5 -186.5z" />
<glyph unicode="&#xff;" horiz-adv-x="1132" d="M80 473q0 40 4 86h729q-12 95 -84.5 150t-179.5 55q-75 0 -140.5 -32t-99.5 -91q-70 39 -190 102q63 117 183.5 174.5t262.5 57.5q136 0 248.5 -62t180 -177.5t67.5 -262.5q0 -148 -67.5 -262t-180 -174t-248.5 -60q-135 0 -245 60t-175 174t-65 262zM324 389 q13 -96 78.5 -149.5t160.5 -53.5q101 0 170 53.5t82 149.5h-491z" />
<glyph unicode="&#x152;" horiz-adv-x="2252" d="M90 702q0 147 56 281t150.5 231.5t227 155t279.5 57.5q134 0 252 -48t205 -140v172h870v-237h-610v-363h534v-233h-534v-340h630v-238h-890v166q-89 -89 -207 -137.5t-250 -48.5q-147 0 -279.5 57.5t-227 154.5t-150.5 230t-56 280zM352 702q0 -126 59.5 -232.5t163 -168 t228.5 -61.5q193 0 323.5 137t130.5 334q-5 190 -135.5 323t-318.5 133q-125 0 -229 -62.5t-163 -169.5t-59 -233z" />
<glyph unicode="&#x153;" horiz-adv-x="1882" d="M82 479q0 146 68.5 261t181.5 176t248 61q110 0 207 -43t165 -121q69 78 167 121t210 43q209 0 335 -125.5t144 -331.5q6 -39 2 -125h-731q13 -96 85 -150.5t179 -54.5q75 0 140.5 32t99.5 91l193 -102q-62 -116 -184 -173.5t-263 -57.5q-113 0 -210.5 43t-166.5 122 q-68 -78 -165 -121.5t-207 -43.5q-135 0 -248 61t-181.5 176.5t-68.5 261.5zM330 479q0 -115 71.5 -185.5t178.5 -70.5t178 70.5t71 185.5q0 112 -71.5 182t-177.5 70t-178 -70t-72 -182zM1077 565h492q-13 96 -78.5 149.5t-161.5 53.5q-100 0 -167.5 -53t-84.5 -150z" />
<glyph unicode="&#x178;" horiz-adv-x="1318" d="M-16 1411h311l362 -543l367 543h313l-544 -772v-639h-269v643zM342 1749q0 57 40.5 95t100.5 38q58 0 99 -38.5t41 -94.5t-41 -94.5t-99 -38.5q-60 0 -100.5 38t-40.5 95zM698 1749q0 57 41 95t101 38t99.5 -38t39.5 -95t-39.5 -95t-99.5 -38t-101 38t-41 95z" />
<glyph unicode="&#x2c6;" horiz-adv-x="1191" d="M246 1120l223 334h252l225 -334h-192l-160 180l-156 -180h-192z" />
<glyph unicode="&#x2dc;" horiz-adv-x="903" d="M164 1155q4 70 23 122.5t48 80t60 40.5t65 13q38 0 72.5 -21t62 -42t46.5 -21q17 0 35.5 20t19.5 64h143q-7 -131 -66.5 -191.5t-131.5 -60.5q-38 0 -73 21t-62.5 42t-45.5 21q-16 0 -34 -22t-19 -66h-143z" />
<glyph unicode="&#x2000;" horiz-adv-x="1017" />
<glyph unicode="&#x2001;" horiz-adv-x="2034" />
<glyph unicode="&#x2002;" horiz-adv-x="1017" />
<glyph unicode="&#x2003;" horiz-adv-x="2034" />
<glyph unicode="&#x2004;" horiz-adv-x="678" />
<glyph unicode="&#x2005;" horiz-adv-x="508" />
<glyph unicode="&#x2006;" horiz-adv-x="339" />
<glyph unicode="&#x2007;" horiz-adv-x="339" />
<glyph unicode="&#x2008;" horiz-adv-x="254" />
<glyph unicode="&#x2009;" horiz-adv-x="406" />
<glyph unicode="&#x200a;" horiz-adv-x="113" />
<glyph unicode="&#x2010;" horiz-adv-x="976" d="M129 391v209h719v-209h-719z" />
<glyph unicode="&#x2011;" horiz-adv-x="976" d="M129 391v209h719v-209h-719z" />
<glyph unicode="&#x2012;" horiz-adv-x="976" d="M129 391v209h719v-209h-719z" />
<glyph unicode="&#x2013;" horiz-adv-x="1267" d="M129 371v221h1010v-221h-1010z" />
<glyph unicode="&#x2014;" horiz-adv-x="1699" d="M129 371v221h1442v-221h-1442z" />
<glyph unicode="&#x2018;" horiz-adv-x="546" d="M106 909q2 88 32 179.5t73.5 163.5t87 125.5t80.5 84.5l110 -55q-38 -54 -62.5 -95.5t-52 -104t-41.5 -137.5t-14 -161h-213z" />
<glyph unicode="&#x2019;" horiz-adv-x="542" d="M84 918q38 53 62.5 94.5t53 104t42.5 136.5t14 160h211q-2 -88 -32 -180t-74 -163.5t-86.5 -124.5t-79.5 -83z" />
<glyph unicode="&#x201a;" horiz-adv-x="512" d="M2 -158q38 53 63 95t53 104.5t42 137.5t14 161h211q-2 -88 -32 -180t-74 -163.5t-86.5 -124.5t-79.5 -83z" />
<glyph unicode="&#x201c;" horiz-adv-x="882" d="M109 911q2 88 32 180t73 164t87 125.5t80 81.5l108 -55q-38 -53 -62.5 -94.5t-52 -103.5t-41.5 -137t-14 -161h-210zM442 911q2 88 32 180t73.5 164t87.5 125.5t80 81.5l110 -55q-38 -53 -63 -95t-52.5 -104t-41 -136t-13.5 -161h-213z" />
<glyph unicode="&#x201d;" horiz-adv-x="874" d="M84 915q37 52 62 95t52.5 105t41.5 137t14 161h211q-2 -88 -31.5 -180t-73 -163.5t-86.5 -124.5t-79 -83zM418 915q38 54 62.5 95.5t52 104t41.5 137.5t14 161h213q-4 -88 -34 -179.5t-73 -163t-86 -125t-80 -83.5z" />
<glyph unicode="&#x201e;" horiz-adv-x="845" d="M4 -158q37 52 62 95t52.5 105t41.5 137t14 161h211q-2 -88 -32 -180t-74 -163.5t-86.5 -124.5t-79.5 -83zM338 -158q38 54 62.5 95.5t52 104t41.5 137.5t14 161h211q-2 -88 -31.5 -180t-73 -163.5t-86.5 -124.5t-79 -83z" />
<glyph unicode="&#x2022;" horiz-adv-x="950" d="M156 487q0 133 93 220.5t226 87.5t226.5 -87.5t93.5 -220.5t-93.5 -220t-226.5 -87t-226 87t-93 220z" />
<glyph unicode="&#x2026;" horiz-adv-x="1660" d="M117 135q0 67 47.5 111.5t114.5 44.5t114 -44.5t47 -111.5t-47 -111t-114 -44t-114.5 44t-47.5 111zM670 135q0 67 46 111.5t113 44.5t115.5 -45t48.5 -111t-48.5 -110.5t-115.5 -44.5t-113 44t-46 111zM1221 135q0 67 47 111.5t114 44.5t114.5 -44.5t47.5 -111.5 t-47.5 -111t-114.5 -44t-114 44t-47 111z" />
<glyph unicode="&#x202f;" horiz-adv-x="406" />
<glyph unicode="&#x2039;" horiz-adv-x="659" d="M84 477l283 424h200l-282 -424l282 -424h-200z" />
<glyph unicode="&#x203a;" horiz-adv-x="659" d="M92 53l283 424l-283 424h201l282 -424l-282 -424h-201z" />
<glyph unicode="&#x205f;" horiz-adv-x="508" />
<glyph unicode="&#x20ac;" horiz-adv-x="1710" d="M98 520v123h992v-123h-478q51 -132 162.5 -212.5t253.5 -80.5q113 0 208.5 51t158.5 140l207 -152q-94 -133 -243.5 -209.5t-330.5 -76.5q-250 0 -440 152t-248 388h-242zM98 758v123h240q60 239 249 392.5t441 153.5q178 0 326 -73.5t241 -204.5l-209 -150 q-64 83 -156.5 132t-201.5 49q-145 0 -256 -82t-162 -217h480v-123h-992z" />
<glyph unicode="&#x2122;" horiz-adv-x="1738" d="M129 1270v141h774l236 -493l231 493h137l92 -758h-157l-58 488l-186 -404h-119l-188 404l-57 -488h-158l74 617h-220v-617h-159v617h-242z" />
<glyph unicode="&#x25fc;" horiz-adv-x="952" d="M0 0v952h952v-952h-952z" />
</font>
</defs>
</svg>
